<svg xmlns="http://www.w3.org/2000/svg" xmlns:xlink="http://www.w3.org/1999/xlink" viewBox="0 0 124.05 89.9"><defs><style>.cls-1{fill:none;}.cls-2{fill:#ff6b6c;}.cls-3{clip-path:url(#clip-path);}.cls-4{clip-path:url(#clip-path-2);}.cls-5{clip-path:url(#clip-path-3);}</style><clipPath id="clip-path"><rect class="cls-1" x="109.81" y="79" width="14.44" height="11.11"/></clipPath><clipPath id="clip-path-2"><rect class="cls-1" x="43.8" y="-35.24" width="46.67" height="147.5" transform="translate(-7.94 57.33) rotate(-43.91)"/></clipPath><clipPath id="clip-path-3"><rect class="cls-1" x="43.88" y="-35.16" width="46.67" height="147.5" transform="translate(-7.97 57.4) rotate(-43.91)"/></clipPath></defs><g id="Capa_2" data-name="Capa 2"><g id="Capa_1-2" data-name="Capa 1"><path class="cls-2" d="M.7,2.68a11.26,11.26,0,0,1,3.75-.86L4.35,0A13.41,13.41,0,0,0,0,1Zm7.63-.55a18.62,18.62,0,0,1,3.78,1.32l.77-1.64A20.39,20.39,0,0,0,8.76.42Zm25.1,24.92.46.48,1.3-1.25-.46-.48a26.9,26.9,0,0,1-2.22-2.51l-1.39,1.15C31.89,25.38,32.65,26.25,33.43,27.05Zm3.78,3.24A26.73,26.73,0,0,0,41,32.4l.76-1.65a23,23,0,0,1-3.49-2ZM28.53,21,30,19.94q-1.17-1.62-2.28-3.3l-.82.41-.76.53Zm-4.71-6.83,1.48-1.08c-.91-1.3-1.74-2.37-2.53-3.35l-1.41,1.14c.79,1,1.57,2,2.49,3.31Zm-8.29-8.8A22.73,22.73,0,0,1,18.62,7.9l1.3-1.25a26.08,26.08,0,0,0-3.31-2.71ZM45.1,33.77a16.4,16.4,0,0,0,4.37.38l-.07-1.82A13.9,13.9,0,0,1,45.49,32Zm8.73-.58a13,13,0,0,0,2.52-1.41,13.56,13.56,0,0,0,1.25-1l-1.24-1.29a9.11,9.11,0,0,1-1.08.89,9.68,9.68,0,0,1-2.13,1.19ZM59,26.41l1.48,1.07c.46-.64.92-1.28,1.37-1.94s.69-1,1-1.5L61.41,23c-.36.51-.71,1-1,1.51s-.92,1.36-1.34,2Zm59.67,62,1.68-.67c-.49-1.29-1-2.58-1.53-3.88l-1.68.7c.57,1.29,1.06,2.58,1.57,3.87Zm-3.08-7.67,1.66-.72-1.63-3.83-1.67.74C114.43,78.13,115.05,79.44,115.58,80.72Zm-3.34-7.58,1.71-.83-1.77-3.76-1.7.84ZM65.49,21a10.22,10.22,0,0,1,2.81-2,1.39,1.39,0,0,1,.35-.16L68,17.18l-.44.19a12.18,12.18,0,0,0-3.22,2.29Zm43.17,44.66,1.69-.86-1.93-3.68-1.65.88C107.44,63.19,108.06,64.41,108.66,65.66Zm-3.77-7.36,1.63-.9-2-3.66-1.62.91C103.59,55.86,104.23,57.07,104.89,58.3Zm-4-7.26,1.61-.93-2.1-3.61-1.59,1Zm-4.22-7.13,1.57-1c-.71-1.2-1.45-2.37-2.2-3.53l-1.55,1ZM72.3,18.19a10.73,10.73,0,0,1,3.7.93l.73-1.66a12.43,12.43,0,0,0-4.32-1.08ZM92.21,36.92l1.54-1-2.32-3.48-1.51,1C90.69,34.61,91.47,35.71,92.21,36.92Zm-4.62-6.86,1.48-1-.71-1c-.57-.77-1.16-1.57-1.84-2.4l-1.41,1.13A17.52,17.52,0,0,1,86.82,29ZM79.4,21.12a27.19,27.19,0,0,1,3,2.62l1.3-1.25a28.7,28.7,0,0,0-3.24-2.79Z"/><g class="cls-3"><g class="cls-4"><g class="cls-5"><path class="cls-2" d="M110.34,85.46l.75-1.66,8.14,3.65L122.35,79l1.7.62L120.24,89.9Z"/></g></g></g></g></g></svg>