<svg xmlns="http://www.w3.org/2000/svg" xmlns:xlink="http://www.w3.org/1999/xlink" viewBox="0 0 134.58 89.56"><defs><style>.cls-1{fill:none;}.cls-2{clip-path:url(#clip-path);}.cls-3{clip-path:url(#clip-path-2);}.cls-4{fill:#ff6b6c;}.cls-5{clip-path:url(#clip-path-4);}</style><clipPath id="clip-path" transform="translate(-1.08 -1.05)"><rect class="cls-1" x="8.89" width="127.78" height="87.78"/></clipPath><clipPath id="clip-path-2" transform="translate(-1.08 -1.05)"><rect class="cls-1" x="9.35" y="-11.04" width="128.33" height="114.17" transform="translate(4.22 98.22) rotate(-69.04)"/></clipPath><clipPath id="clip-path-4" transform="translate(-1.08 -1.05)"><rect class="cls-1" y="73.33" width="25.56" height="17.78"/></clipPath></defs><g id="Capa_2" data-name="Capa 2"><g id="Capa_1-2" data-name="Capa 1"><g class="cls-2"><g class="cls-3"><g class="cls-3"><path class="cls-4" d="M9.23,87.19a32.29,32.29,0,0,1,1.56-6.94l2.74,1a29,29,0,0,0-1.29,6.26ZM16.31,75.3l-2.57-1.52a36.84,36.84,0,0,1,4.14-5.72l2.38,2a34.38,34.38,0,0,0-3.85,5.27ZM25,65.59l-1.84-2.34a34.51,34.51,0,0,1,6-3.79l1.36,2.62A33.3,33.3,0,0,0,25,65.59Zm11.68-5.82-.8-2.85a30.71,30.71,0,0,1,7.07-1.09l.12,3a27.37,27.37,0,0,0-6.49.9ZM87.3,74.14l1-2.73c2,.76,4.1,1.43,6.2,2l-.72,2.86a64.92,64.92,0,0,1-6.62-2.19ZM80.87,71.5c-2.14-.82-4.17-2-6.22-2.92L76,65.94c2,1,4.06,2,6.14,2.88ZM49.58,59.17l.45-3a44.81,44.81,0,0,1,6.86,1.56l-.82,2.82a47.91,47.91,0,0,0-6.59-1.48ZM68.51,65.6c-2-1-4.1-1.88-6.17-2.71l1-2.74c2.15.82,4.24,1.78,6.35,2.78Zm32.41,11.79.28-3a30.8,30.8,0,0,0,4.5.18q.92,0,1.83-.15l.42,2.93a17.71,17.71,0,0,1-2.06.18,30.71,30.71,0,0,1-5.07-.18Zm14.09-2-1.12-2.75a24,24,0,0,0,5.49-3.24l1.77,2.38a28.46,28.46,0,0,1-6.24,3.54Zm11.21-8.7-2.47-1.77a16.59,16.59,0,0,0,2-3.64,11.47,11.47,0,0,0,.6-2l2.89.67a17.35,17.35,0,0,1-.71,2.36A20.46,20.46,0,0,1,126.22,66.71Zm.27-13.53a27.43,27.43,0,0,0-2-6.11l2.71-1.23a30,30,0,0,1,2.24,6.82Zm-5.06-12.13a51.85,51.85,0,0,1-3.09-6.25l2.74-1.14c.86,2,2,3.88,3,6Zm-5-13.2a23.51,23.51,0,0,1,.26-7.25l2.92.59a19.78,19.78,0,0,0-.23,6.19Zm5.46-12.6-2.6-1.44a27.2,27.2,0,0,1,4.17-5.87l2,2A21.72,21.72,0,0,0,121.86,15.25ZM130.56,6l-1.5-2.58a21.83,21.83,0,0,1,6.05-2.39l.55,2.85A18.66,18.66,0,0,0,130.43,6Z" transform="translate(-1.08 -1.05)"/></g></g></g><g class="cls-5"><g class="cls-3"><g class="cls-3"><path class="cls-4" d="M25,80.07l-1.76-2.41L11.42,86.33,3.58,74l-2.5,1.59,9.55,15Z" transform="translate(-1.08 -1.05)"/></g></g></g></g></g></svg>