<svg xmlns="http://www.w3.org/2000/svg" xmlns:xlink="http://www.w3.org/1999/xlink" viewBox="0 0 127.23 60.17"><defs><style>.cls-1{fill:none;}.cls-2{clip-path:url(#clip-path);}.cls-3{clip-path:url(#clip-path-2);}.cls-4{clip-path:url(#clip-path-3);}.cls-5{fill:#ff6b6c;}.cls-6{clip-path:url(#clip-path-4);}</style><clipPath id="clip-path" transform="translate(-0.34 -0.83)"><rect class="cls-1" width="123.33" height="61.11"/></clipPath><clipPath id="clip-path-2" transform="translate(-0.34 -0.83)"><rect class="cls-1" x="11.42" y="-27.71" width="99.17" height="111.67" transform="translate(-5.53 37.38) rotate(-32.68)"/></clipPath><clipPath id="clip-path-3" transform="translate(-0.34 -0.83)"><rect class="cls-1" x="11.13" y="-27.53" width="99.17" height="111.67" transform="translate(-5.67 37.26) rotate(-32.68)"/></clipPath><clipPath id="clip-path-4" transform="translate(-0.34 -0.83)"><rect class="cls-1" x="107.78" y="38.89" width="20" height="16.67"/></clipPath></defs><g id="Capa_2" data-name="Capa 2"><g id="Capa_1-2" data-name="Capa 1"><g class="cls-2"><g class="cls-3"><g class="cls-4"><path class="cls-5" d="M122.7,52a28.3,28.3,0,0,0-2.56-5.63L118,47.78a25.29,25.29,0,0,1,2.21,5.09Zm-8.13-8.88,1.92-1.74A32.45,32.45,0,0,0,112,37.26l-1.67,2.13a29.35,29.35,0,0,1,4.21,3.82Zm-9.09-6.74,1.16-2.32a31.39,31.39,0,0,0-5.77-2.18l-.7,2.48A28.62,28.62,0,0,1,105.48,36.41Zm-11-2.9.17-2.57a27.39,27.39,0,0,0-6.2.31l.42,2.55a24,24,0,0,1,5.68-.37ZM54,54.66l-1.38-2.14Q50.21,54,47.67,55.31l1.12,2.31a54.59,54.59,0,0,0,5.25-3Zm5-3.38c1.68-1.08,3.21-2.39,4.78-3.58l-1.57-2q-2.31,1.81-4.71,3.54Zm24.44-16-.9-2.45a39.37,39.37,0,0,0-5.57,2.54l1.21,2.26a41.44,41.44,0,0,1,5.34-2.43Zm-15,8.81c1.55-1.18,3.15-2.33,4.77-3.39l-1.37-2.15c-1.68,1.07-3.29,2.26-4.91,3.48ZM43,59.82l-.78-2.53a25.94,25.94,0,0,1-3.79,1c-.52.09-1.05.15-1.58.19L37,61a17.64,17.64,0,0,0,1.78-.21,27.25,27.25,0,0,0,4.28-1Zm-12.34.8.47-2.55a21.12,21.12,0,0,1-5.25-1.78l-1.08,2.33a24.56,24.56,0,0,0,5.94,1.92ZM19.53,55.18l1.8-1.94A14.28,14.28,0,0,1,19,50.48a9.53,9.53,0,0,1-.85-1.57L15.81,50a15,15,0,0,0,1,1.89A17.41,17.41,0,0,0,19.53,55.18ZM16.91,43.71a24.3,24.3,0,0,1,.65-5.57L15,37.57a25.44,25.44,0,0,0-.69,6.21Zm2.15-11.23a43.82,43.82,0,0,0,1.53-5.86l-2.53-.49c-.38,1.87-1,3.65-1.46,5.63Zm2-12.12a20.85,20.85,0,0,0-1.5-6.13l-2.39,1a16.8,16.8,0,0,1,1.29,5.23Zm-6.88-9.77,2-1.68A23.54,23.54,0,0,0,11.5,4.64l-1.39,2A19.35,19.35,0,0,1,14.13,10.59Zm-9-6.33L5.92,1.8A19.23,19.23,0,0,0,.34.83l0,2.52a16.51,16.51,0,0,1,4.83.9Z" transform="translate(-0.34 -0.83)"/></g></g></g><g class="cls-6"><g class="cls-3"><g class="cls-4"><path class="cls-5" d="M108,48.74l1.07-2.36,11.57,5.31,4.48-11.91,2.41.91-5.46,14.5Z" transform="translate(-0.34 -0.83)"/></g></g></g></g></g></svg>