<svg xmlns="http://www.w3.org/2000/svg" xmlns:xlink="http://www.w3.org/1999/xlink" viewBox="0 0 95.86 115.39"><defs><style>.cls-1{fill:none;}.cls-2{clip-path:url(#clip-path);}.cls-3{clip-path:url(#clip-path-2);}.cls-4{fill:#ff6b6c;}.cls-5{clip-path:url(#clip-path-4);}</style><clipPath id="clip-path" transform="translate(-0.19 -0.1)"><rect class="cls-1" x="5.56" width="91.11" height="114.44"/></clipPath><clipPath id="clip-path-2" transform="translate(-0.19 -0.1)"><rect class="cls-1" x="-29.25" y="30.79" width="144.17" height="45" transform="translate(-24.41 65.62) rotate(-61.6)"/></clipPath><clipPath id="clip-path-4" transform="translate(-0.19 -0.1)"><rect class="cls-1" y="105.56" width="15.56" height="10"/></clipPath></defs><g id="Capa_2" data-name="Capa 2"><g id="Capa_1-2" data-name="Capa 1"><g class="cls-2"><g class="cls-3"><g class="cls-3"><path class="cls-4" d="M95.82,1.94a10.82,10.82,0,0,0-3.72.19L91.73.4A12.8,12.8,0,0,1,96.05.2ZM88.55,3.45A18.56,18.56,0,0,0,85.36,5.7L84.22,4.37A19.39,19.39,0,0,1,87.72,2Zm-17.11,30-.3.57-1.53-.83.3-.57a27.6,27.6,0,0,0,1.44-2.93l1.59.7C72.45,31.51,72,32.53,71.44,33.49Zm-2.71,4a25.41,25.41,0,0,1-3,3l-1.13-1.35a22.49,22.49,0,0,0,2.76-2.76Zm5.75-11-1.65-.59c.45-1.22.89-2.46,1.29-3.71l.88.17.83.29Zm2.66-7.66-1.64-.61c.52-1.46,1-2.68,1.51-3.81l1.6.69c-.48,1.15-1,2.33-1.48,3.76ZM82.66,8.41a21.66,21.66,0,0,0-2.25,3.2l-1.53-.83a24.87,24.87,0,0,1,2.41-3.43ZM62.25,42.89a15.74,15.74,0,0,1-4,1.52l-.4-1.72a13.72,13.72,0,0,0,3.56-1.36ZM54,44.68A12.76,12.76,0,0,1,51.24,44a14.88,14.88,0,0,1-1.42-.62l.83-1.54A10.38,10.38,0,0,0,54.18,43Zm-6.53-5-1.11,1.39c-.59-.48-1.18-.95-1.77-1.45s-.9-.77-1.36-1.14l1.11-1.38c.47.37.91.75,1.36,1.13s1.2,1,1.75,1.48Zm-40,74-1.73-.18c.13-1.34.28-2.69.44-4l1.75.21c-.2,1.36-.33,2.7-.49,4Zm.94-8-1.74-.23.56-4,1.74.25C8.77,102.91,8.53,104.31,8.36,105.65Zm1.2-8-1.81-.32.7-4,1.8.33ZM40,36.35a9.13,9.13,0,0,0-3.11-1.11,1.18,1.18,0,0,0-.36-.06l.2-1.76.45.07a11.56,11.56,0,0,1,3.6,1.28ZM11,89.69l-1.79-.35.86-4,1.77.39C11.51,87.05,11.25,88.36,11,89.69Zm1.66-7.9-1.75-.41.93-4,1.75.43C13.26,79.15,13,80.46,12.66,81.79Zm1.9-7.87-1.73-.44,1-4,1.72.47Zm2.13-7.81L15,65.62c.36-1.31.75-2.61,1.16-3.9l1.69.52ZM32.91,35.53a10.47,10.47,0,0,0-3.22,1.85L28.59,36a12.48,12.48,0,0,1,3.76-2.16ZM19.07,58.38l-1.69-.54L18.67,54l1.67.56C19.9,55.81,19.46,57,19.07,58.38Zm2.58-7.66L20,50.12,20.4,49c.34-.88.69-1.78,1.11-2.74l1.6.68a18.06,18.06,0,0,0-1,2.59ZM27,40.15a27.41,27.41,0,0,0-2.19,3.27l-1.52-.82a26.92,26.92,0,0,1,2.31-3.48Z" transform="translate(-0.19 -0.1)"/></g></g></g><g class="cls-5"><g class="cls-3"><g class="cls-3"><path class="cls-4" d="M14.45,108.7l-1.12-1.36-6.68,5.59-5-7.06-1.42,1,6.14,8.58Z" transform="translate(-0.19 -0.1)"/></g></g></g></g></g></svg>