<svg xmlns="http://www.w3.org/2000/svg" viewBox="0 0 78.9 14.54"><defs><style>.cls-1{fill:#fff;}</style></defs><g id="Capa_2" data-name="Capa 2"><g id="Capa_1-2" data-name="Capa 1"><path class="cls-1" d="M7.16,14.54a7.47,7.47,0,0,0,3.43-.77v-.9a6.93,6.93,0,0,1-3.43.82c-3.77,0-6.27-2.45-6.27-6A5.85,5.85,0,0,1,7.1,1.58c3.73,0,6.16,2.44,6.16,6,0,1.76-.61,2.55-1.55,2.55s-1.32-.65-1.32-1.65V4.55H9.64L9.57,5.64A3.09,3.09,0,0,0,6.94,4.26,3.25,3.25,0,0,0,3.62,7.61,3.21,3.21,0,0,0,6.94,11,3.37,3.37,0,0,0,9.78,9.51a1.91,1.91,0,0,0,1.93,1.39c1.41,0,2.41-1.07,2.41-3.37A6.66,6.66,0,0,0,7.1.74,6.75,6.75,0,0,0,0,7.66C0,11.66,2.88,14.54,7.16,14.54ZM4.49,7.61A2.46,2.46,0,0,1,7,5.05,2.44,2.44,0,0,1,9.54,7.61,2.42,2.42,0,0,1,7,10.16,2.44,2.44,0,0,1,4.49,7.61Z"/><path class="cls-1" d="M19.34,11.61c1.9,0,3.1-.86,3.1-2.18s-1-2-3-2.35c-1.74-.33-2.39-.76-2.39-1.53s.78-1.38,2.09-1.38,2.17.56,2.26,1.59h.88c-.13-1.5-1.29-2.38-3.14-2.38s-3,.82-3,2.15.92,1.93,3,2.28c1.66.29,2.41.79,2.41,1.61s-.84,1.39-2.22,1.39S17,10.16,16.9,9.05H16C16.09,10.62,17.35,11.61,19.34,11.61Z"/><path class="cls-1" d="M28.42,11.61a3.94,3.94,0,0,0,4.11-4.12,3.94,3.94,0,0,0-4.11-4.11A3.94,3.94,0,0,0,24.3,7.49,3.94,3.94,0,0,0,28.42,11.61ZM25.17,7.49a3.1,3.1,0,0,1,3.25-3.26,3.09,3.09,0,0,1,3.23,3.26,3.24,3.24,0,1,1-6.48,0Z"/><path class="cls-1" d="M35.72,2.67v.91H33.93v.8h1.79v7h.88v-7h2.9v-.8H36.6V2.73c0-1.34.55-1.9,1.82-1.9h1.15V0H38.35A2.34,2.34,0,0,0,35.72,2.67Z"/><path class="cls-1" d="M41.28,11.42h.89V3.58h-.89ZM40.92,1.35a.81.81,0,0,0,1.61,0,.81.81,0,0,0-1.61,0Z"/><path class="cls-1" d="M44.33,11.42h1.08l1.71-2.23L48,8l.88,1.17,1.71,2.23h1.08l-3.1-4,2.9-3.82H50.43L48.84,5.66,48,6.78l-.83-1.12-1.6-2.08h-1l2.9,3.82Z"/><path class="cls-1" d="M53.85,11.42h.88V7.36a2.83,2.83,0,0,1,2.8-3.13c1.57,0,2.54,1.12,2.54,2.93v4.26H61V7.08c0-2.26-1.26-3.7-3.31-3.7a3.27,3.27,0,0,0-3,1.72l-.08-1.52h-.74Z"/><path class="cls-1" d="M68.08,11.61a3.91,3.91,0,0,0,4-4.12,3.9,3.9,0,0,0-4-4.11,3.83,3.83,0,0,0-3.35,1.76l-.09-1.56H63.9V14.45h.88V9.93A3.86,3.86,0,0,0,68.08,11.61ZM64.75,7.49a3.24,3.24,0,1,1,6.47,0,3.24,3.24,0,1,1-6.47,0Z"/><path class="cls-1" d="M74.54,11.42h.88V7.81c0-2.38,1.12-3.41,2.8-3.41h.68V3.58h-.65a2.82,2.82,0,0,0-2.88,1.76l-.09-1.76h-.74Z"/></g></g></svg>