<svg xmlns="http://www.w3.org/2000/svg" viewBox="0 0 96.54 209.94"><defs><style>.cls-1{fill:#9d8ebc;}.cls-2{fill:#fff;}</style></defs><g id="Capa_2" data-name="Capa 2"><g id="Capa_1-2" data-name="Capa 1"><path class="cls-1" d="M0,0V178.75q0,1.53.15,3.06t.45,3q.3,1.5.75,3c.29,1,.64,1.93,1,2.88a30.3,30.3,0,0,0,1.31,2.76,29.06,29.06,0,0,0,1.58,2.63c.57.85,1.18,1.67,1.82,2.46s1.34,1.54,2.06,2.27,1.48,1.4,2.27,2.05,1.62,1.26,2.47,1.83,1.73,1.09,2.63,1.57,1.83.91,2.77,1.31,1.91.73,2.89,1,2,.55,3,.74,2,.35,3,.45,2,.15,3.06.15H65.3q1.53,0,3.06-.15t3-.45a30,30,0,0,0,3-.74c1-.3,2-.64,2.89-1s1.87-.83,2.77-1.31,1.78-1,2.63-1.57,1.68-1.18,2.47-1.83,1.55-1.33,2.27-2.05,1.41-1.48,2.06-2.27,1.26-1.61,1.83-2.46,1.09-1.72,1.57-2.63a30.3,30.3,0,0,0,1.31-2.76c.39-.95.74-1.91,1-2.88s.54-2,.74-3,.35-2,.45-3,.15-2,.15-3.06V0Z"/><path class="cls-2" d="M59.82,143a8.72,8.72,0,0,0-.9-4H57.86a8.13,8.13,0,0,1,1,4c0,4.41-2.87,7.34-7.07,7.34a6.85,6.85,0,0,1-7.13-7.27c0-4.37,2.86-7.21,7-7.21,2.06,0,3,.71,3,1.81s-.76,1.55-1.94,1.55H48.11v.87l1.28.09a3.58,3.58,0,0,0-1.62,3.07,3.92,3.92,0,0,0,7.84,0,4,4,0,0,0-1.69-3.33,2.22,2.22,0,0,0,1.64-2.25c0-1.66-1.27-2.83-4-2.83-4.44,0-8,3.24-8,8.23,0,4.82,3.34,8.32,8.1,8.32S59.82,148,59.82,143Zm-8.12,3.13a3,3,0,1,1,0-5.92,3,3,0,1,1,0,5.92Z"/><path class="cls-2" d="M56.39,128.73c0-2.22-1-3.62-2.56-3.62-1.39,0-2.31,1.15-2.75,3.48-.39,2-.89,2.81-1.8,2.81s-1.62-.92-1.62-2.46.66-2.54,1.87-2.64v-1c-1.76.14-2.79,1.51-2.79,3.67s1,3.49,2.52,3.49,2.26-1.09,2.67-3.49c.34-2,.92-2.82,1.88-2.82s1.64,1,1.64,2.59c0,1.77-.77,2.78-2.06,2.89v1C55.22,132.54,56.39,131.06,56.39,128.73Z"/><path class="cls-2" d="M56.39,118.09a4.83,4.83,0,1,0-4.84,4.83A4.63,4.63,0,0,0,56.39,118.09Zm-4.84,3.8a3.8,3.8,0,1,1,3.85-3.8A3.64,3.64,0,0,1,51.55,121.89Z"/><path class="cls-2" d="M45.9,109.52H47v2.1h.94v-2.1h8.25v-1H47.91v-3.4H47v3.4H46c-1.56,0-2.22-.64-2.22-2.14V105h-1v1.44Q42.77,109.51,45.9,109.52Z"/><path class="cls-2" d="M56.16,103v-1H47v1Zm-11.8.42a.94.94,0,1,0-.93-.94A.9.9,0,0,0,44.36,103.42Z"/><path class="cls-2" d="M56.16,99.42V98.16l-2.61-2L52.18,95.1l1.37-1,2.61-2V90.8l-4.71,3.63L47,91v1.25l2.44,1.87,1.31,1-1.31,1L47,98v1.23l4.48-3.39Z"/><path class="cls-2" d="M56.16,88.26v-1H51.39c-2.18,0-3.66-1.35-3.66-3.29s1.32-3,3.43-3h5V80H51.08c-2.65,0-4.34,1.47-4.34,3.87a3.84,3.84,0,0,0,2,3.48L47,87.39v.87Z"/><path class="cls-2" d="M56.39,71.57a4.83,4.83,0,0,0-9.65,0A4.48,4.48,0,0,0,48.8,75.5L47,75.61v.87H59.71v-1H54.42A4.56,4.56,0,0,0,56.39,71.57Zm-4.84,3.91a3.8,3.8,0,1,1,3.85-3.8A3.64,3.64,0,0,1,51.55,75.48Z"/><path class="cls-2" d="M56.16,64V63H51.93c-2.79,0-4-1.31-4-3.29v-.8H47v.77A3.3,3.3,0,0,0,49,63L47,63.13V64Z"/></g></g></svg>