<svg xmlns="http://www.w3.org/2000/svg" xmlns:xlink="http://www.w3.org/1999/xlink" viewBox="0 0 136.42 160.27"><defs><style>.cls-1{fill:none;}.cls-2{fill:#bceded;}.cls-3{clip-path:url(#clip-path);}</style><clipPath id="clip-path"><rect class="cls-1" x="103.07" y="42.01" width="33.59" height="45.37"/></clipPath></defs><g id="Capa_2" data-name="Capa 2"><g id="Capa_1-2" data-name="Capa 1"><path class="cls-2" d="M12.5,10.43c2.72-.7,4,2.72,5.78,10s4.45,16.07,6.26,20.16,5.21,6.82,7.39,5.75,2.76-8.76,1.81-15.49-2.66-14.9-3-17.53.79-5.26,3.57-5.55,4.68,1.65,6,9.64S42.94,39.26,41.51,45s-3.79,8.57-8.44,9.84-12.9-1.27-17.26-11.79A103.77,103.77,0,0,1,9.46,19.48C8.7,15.3,9.84,11.11,12.5,10.43Z"/><path class="cls-2" d="M70.29,2.25c2.8-.27,4.41,6,5.17,13.53s3.13,21.34,7.3,20.56,4-12,3.61-17.52-1.09-13.69,0-16.48S90.82-.53,92.63,1s2.16,6,2.16,15.53-1.6,23.83-7.66,26.9-13.1.36-16.65-7.51-4.32-21.53-4.25-25.83S67.46,2.51,70.29,2.25Z"/><g class="cls-3"><path class="cls-2" d="M107.68,45.55c-2.28.35-3.76,3.73-3.2,11.24s4.18,20.61,9,25.4,10.73,6.23,16,2.93,6.55-10.44,6.83-18.31.41-19.68-1-22-6.48-3-7.18.57S128,59,128.16,65s-.77,13.6-3.62,14-7.73-4.94-9.76-14.1-3.06-15.24-3.27-16.81A3.28,3.28,0,0,0,107.68,45.55Z"/></g><path class="cls-2" d="M76.54,62.22c-2.44-.1-4,1.08-4,6.73s0,13.39-.41,18.25-1.75,8.73-4.61,8.94-7-4.51-8.14-14.09-2.52-16.82-3.49-19-6-2-6.83,1.36-.41,12.09.84,19.89,5.5,17.47,11.35,20.19,12,.92,16.1-5.09,4.45-17.74,4.45-25.47S79.89,62.37,76.54,62.22Z"/><path class="cls-2" d="M3.26,65.66c-2.32.25-3.91,1.72-3,9.87s4,20.76,7.46,26.91,8.49,9.88,15,8.23,8.64-7.44,9.48-14.17.41-16.39-.07-21.75-2.3-7.8-4.67-7.87-4,1.07-3.9,7.15.41,12.24.55,17.17-.42,10.88-3.41,11.31-6.2-5.29-7.94-12.09S9.39,75.53,8.34,71.53,5.27,65.45,3.26,65.66Z"/><path class="cls-2" d="M40.18,118.61c-2.73.51-3.91,5.87-2.72,12.59s5.36,19.11,9.41,24.12,7.87,5.79,13.93,4.22,9.26-9.59,9.82-17.1.49-19.53-2.37-22-6.69-.29-6.9,3.93.35,10,.49,16S61,151,57.52,151.31s-8.08-7.94-9.26-14.24-2.44-11-3.07-14.16S41.71,118.32,40.18,118.61Z"/><path class="cls-2" d="M97.93,111.17c-1.9.29-4.25,1.57-3.42,10.59s4.32,20.89,8,26.05,8.43,7.87,13.79,6.72,9.89-9.23,10.38-18.11-.49-18.31-1.33-21.38-3.27-5.88-6.06-5.37-3.48,3.71-2.5,9.37a71.64,71.64,0,0,1,1.25,15.17c-.21,4.44-1.32,9.73-4.25,10.95s-7-8.16-8.5-16.39-2.44-12.38-2.78-14.09S100.23,110.81,97.93,111.17Z"/></g></g></svg>