<?xml version="1.0" encoding="utf-8"?>
<!-- Generator: Adobe Illustrator 25.0.1, SVG Export Plug-In . SVG Version: 6.00 Build 0)  -->
<svg version="1.1" id="Capa_1" xmlns="http://www.w3.org/2000/svg" xmlns:xlink="http://www.w3.org/1999/xlink" x="0px" y="0px"
	 viewBox="0 0 228.9 251.2" style="enable-background:new 0 0 228.9 251.2;" xml:space="preserve">
<style type="text/css">
	.st0{fill:#69B6BC;}
	.st1{fill:#FFFFFF;}
</style>
<g>
	<g>
		<path class="st0" d="M139.1,217.8c-4.5,10.8-7.9,22.1-10.5,33.5h32.8c8.7-25.9,20.3-51.2,33-64.3c10-10.3,21.9-18.9,34.5-26.3
			v-42.4C188.3,137.7,158.6,170.7,139.1,217.8z"/>
		<path class="st0" d="M201.7,81.4C123.6,133.3,99.1,183.6,86.4,251.2h33.1c2.8-12.4,6.5-24.8,11.4-36.7
			c21.2-50.9,53.6-86.2,97.9-106.2V65.8C219.8,70.3,210.7,75.4,201.7,81.4z"/>
		<path class="st0" d="M144.1,71.7c-42,31.3-74.1,62-104,172.6c-0.6,2.3-1.2,4.6-1.8,6.9h39.2c13.1-70.8,38.3-123.4,119.8-177.5
			c10.5-7,21.1-12.9,31.6-17.9V31.1C194.2,43.2,162.4,58.1,144.1,71.7z"/>
		<path class="st0" d="M134,32.6C78.7,62.7,23.9,148.3,7.2,211.1C4,223.2,1.6,236.9,0,251.2h29.3c0.7-3,1.5-6,2.3-9
			c30.7-113.6,64-145.4,107.6-177.9c19.6-14.6,53.3-30.4,89.7-42.9V0C196.2,7.5,159.9,18.5,134,32.6z"/>
	</g>
	<g>
		<path class="st1" d="M77.5,251.2h8.9c12.7-67.6,37.2-118,115.3-169.9c9-6,18.1-11.1,27.2-15.6v-10c-10.5,5-21.1,11-31.6,17.9
			C115.8,127.9,90.6,180.4,77.5,251.2z"/>
		<path class="st1" d="M131,214.5c-5,12-8.7,24.3-11.4,36.7h9c2.6-11.4,6-22.6,10.5-33.5c19.6-47.1,49.3-80.1,89.8-99.5v-10
			C184.5,128.3,152.2,163.6,131,214.5z"/>
		<path class="st1" d="M31.6,242.2c-0.8,3-1.6,6-2.3,9h9c0.6-2.3,1.2-4.6,1.8-6.9c29.9-110.6,62-141.3,104-172.6
			c18.3-13.6,50.1-28.5,84.8-40.6v-9.6c-36.4,12.5-70.1,28.3-89.7,42.9C95.6,96.8,62.3,128.6,31.6,242.2z"/>
	</g>
</g>
</svg>
