<?xml version="1.0" encoding="utf-8"?>
<!-- Generator: Adobe Illustrator 25.0.1, SVG Export Plug-In . SVG Version: 6.00 Build 0)  -->
<svg version="1.1" id="Capa_1" xmlns="http://www.w3.org/2000/svg" xmlns:xlink="http://www.w3.org/1999/xlink" x="0px" y="0px"
	 viewBox="0 0 160.1 174.5" style="enable-background:new 0 0 160.1 174.5;" xml:space="preserve">
<style type="text/css">
	.st0{fill:none;}
	.st1{fill:#489799;}
	.st2{fill:#FF6B6C;}
	.st3{fill:#9D8EBC;}
</style>
<g>
	<path class="st0" d="M91.8,23.5c-0.1,10.4-0.8,12.3,1.8,23.1c6.1,23.9,35.9,25.9,66.5,22.5V0H91C91.4,7.8,91.7,15.7,91.8,23.5z"/>
	<path class="st0" d="M88,66.6c-11.6-18.8-8.8-39-9.8-60.3c-0.1-2.5-0.1-4.5-0.1-6.3H56.4c0.8,14.1,0.6,27.3,2.1,41.2v-0.7
		c2.1,71.3,51.5,82.4,101.6,75.7V84C131,86.9,102.9,84.8,88,66.6z"/>
	<path class="st0" d="M45.4,62.2C39.9,41.9,41.5,20.7,39.8,0H18.3c0.4,1.2,0.7,2.5,1.1,3.7c3.4,12.5,1.3,25.8,2.1,38.6
		c-5.4,103.6,65.1,131.7,138.6,107V134C108,140.2,55.1,127.8,45.4,62.2z"/>
	<path class="st1" d="M21.5,42.4c-0.8-12.8,1.2-26.2-2.1-38.6C19,2.5,18.7,1.2,18.3,0H2c1.7,4.3,3.3,8.7,3.6,13.4
		c0.1,3.3,0,6.7,0,10C-3,138.1,58.3,197.5,158.8,166.1c0.4-0.2,0.8-0.3,1.3-0.5v-16.2C86.6,174.1,16.1,146,21.5,42.4z"/>
	<path class="st2" d="M58.5,40.5v0.7C57,27.3,57.2,14.1,56.4,0H39.8c1.8,20.7,0.2,41.9,5.7,62.2c9.6,65.6,62.6,78,114.7,71.8v-17.8
		C110.1,122.9,60.7,111.8,58.5,40.5z"/>
	<path class="st3" d="M93.6,46.6c-2.6-10.7-1.9-12.7-1.8-23.1C91.7,15.7,91.4,7.8,91,0H78.1c0,1.8,0,3.8,0.1,6.3
		c1,21.3-1.9,41.5,9.8,60.3C102.9,84.8,131,86.9,160.1,84V69.1C129.6,72.5,99.8,70.5,93.6,46.6z"/>
</g>
</svg>
